<svg width="51" height="52" viewBox="0 0 51 52" fill="none" xmlns="http://www.w3.org/2000/svg">
<path d="M9.05078 23.698V34.2593C9.05078 38.1268 9.05078 38.1268 12.7058 40.5918L22.757 46.393C24.2658 47.2643 26.7308 47.2643 28.2395 46.393L38.2908 40.5918C41.9458 38.1268 41.9458 38.1268 41.9458 34.2593V23.698C41.9458 19.8305 41.9458 19.8305 38.2908 17.3655L28.2395 11.5643C26.7308 10.693 24.2658 10.693 22.757 11.5643L12.7058 17.3655C9.05078 19.8305 9.05078 19.8305 9.05078 23.698Z" stroke="#292D32" stroke-width="3" stroke-linecap="round" stroke-linejoin="round"/>
<path d="M37.1875 16.4945V10.9057C37.1875 6.65573 35.0625 4.53073 30.8125 4.53073H20.1875C15.9375 4.53073 13.8125 6.65573 13.8125 10.9057V16.3457" stroke="#292D32" stroke-width="3" stroke-linecap="round" stroke-linejoin="round"/>
<path d="M26.8385 23.6343L28.0498 25.5256C28.241 25.8231 28.666 26.1206 28.9848 26.2056L31.1523 26.7581C32.491 27.0981 32.8523 28.2456 31.981 29.3081L30.5573 31.0293C30.3448 31.3056 30.1748 31.7943 30.196 32.1343L30.3235 34.3656C30.4085 35.7468 29.431 36.4481 28.156 35.9381L26.0735 35.1093C25.7548 34.9818 25.2235 34.9818 24.9048 35.1093L22.8223 35.9381C21.5473 36.4481 20.5698 35.7256 20.6548 34.3656L20.7823 32.1343C20.8035 31.7943 20.6335 31.2843 20.421 31.0293L18.9973 29.3081C18.126 28.2456 18.4873 27.0981 19.826 26.7581L21.9935 26.2056C22.3335 26.1206 22.7585 25.8018 22.9285 25.5256L24.1398 23.6343C24.9048 22.4868 26.0948 22.4868 26.8385 23.6343Z" stroke="#292D32" stroke-width="3" stroke-linecap="round" stroke-linejoin="round"/>
</svg>
