<svg width="51" height="52" viewBox="0 0 51 52" fill="none" xmlns="http://www.w3.org/2000/svg">
<path d="M46.75 35.8537V10.205C46.75 7.65497 44.6675 5.76372 42.1387 5.97622H42.0113C37.5488 6.35872 30.77 8.63247 26.9875 11.0125L26.6262 11.2462C26.01 11.6287 24.99 11.6287 24.3738 11.2462L23.8425 10.9275C20.06 8.56872 13.3025 6.31622 8.84 5.95497C6.31125 5.74247 4.25 7.65497 4.25 10.1837V35.8537C4.25 37.8937 5.9075 39.8062 7.9475 40.0612L8.56375 40.1462C13.175 40.7625 20.2938 43.1 24.3738 45.3312L24.4588 45.3737C25.0325 45.6925 25.9463 45.6925 26.4988 45.3737C30.5788 43.1212 37.7188 40.7625 42.3513 40.1462L43.0525 40.0612C45.0925 39.8062 46.75 37.8937 46.75 35.8537Z" stroke="black" stroke-width="3" stroke-linecap="round" stroke-linejoin="round"/>
<path d="M25.5 11.9474V43.8224" stroke="black" stroke-width="3" stroke-linecap="round" stroke-linejoin="round"/>
<path d="M16.4688 18.3224H11.6875" stroke="black" stroke-width="3" stroke-linecap="round" stroke-linejoin="round"/>
<path d="M18.0625 24.6974H11.6875" stroke="black" stroke-width="3" stroke-linecap="round" stroke-linejoin="round"/>
</svg>
