<svg width="56" height="56" viewBox="0 0 56 56" fill="none" xmlns="http://www.w3.org/2000/svg">
<path d="M28.0003 53.0004C25.1258 53.0004 25.1015 50.9092 22.6251 49.1248C18.3172 46.0216 11.6955 42.3692 6.42319 41.6544C5.47811 41.5496 4.60523 41.0988 3.97309 40.3884C3.34094 39.6782 2.9943 38.7589 3.00007 37.808V6.8462C3.00003 6.29068 3.12035 5.74172 3.35273 5.23708C3.58511 4.73248 3.92406 4.2842 4.34623 3.92311C4.76099 3.56857 5.24639 3.30633 5.77027 3.15381C6.29415 3.00129 6.84448 2.96198 7.38472 3.03849C15.3244 4.3562 22.5876 8.31304 28.0003 14.2694V53.0004Z" stroke="white" stroke-width="3" stroke-linecap="round" stroke-linejoin="round"/>
<path d="M28 53.0004C30.8745 53.0004 30.8988 50.9092 33.3752 49.1248C37.6831 46.0216 44.3048 42.3692 49.5772 41.6544C50.5224 41.5496 51.3952 41.0988 52.0272 40.3884C52.6592 39.6782 53.006 38.7589 53.0004 37.808V6.8462C53.0004 6.29068 52.88 5.74172 52.6476 5.23708C52.4152 4.73248 52.0764 4.2842 51.654 3.92311C51.2392 3.56857 50.754 3.30633 50.23 3.15381C49.706 3.00129 49.156 2.96198 48.6156 3.03849C40.676 4.3562 33.4127 8.31304 28 14.2694V53.0004Z" stroke="white" stroke-width="3" stroke-linecap="round" stroke-linejoin="round"/>
</svg>
