<svg width="56" height="56" viewBox="0 0 56 56" fill="none" xmlns="http://www.w3.org/2000/svg">
<path d="M7.06108 44.3904C7.44052 48.2312 10.4606 51.3324 14.2872 51.836C18.7227 52.4196 23.3078 53 28 53C32.6922 53 37.2773 52.4196 41.7128 51.836C45.5392 51.3324 48.5596 48.2312 48.9388 44.3904C49.4616 39.1004 50 33.618 50 28C50 24.6968 49.814 21.4404 49.5544 18.2425C48.9296 10.5488 42.7816 4.12048 35.0984 3.37721C32.7639 3.15137 30.3959 3 28 3C23.3078 3 18.7227 3.58056 14.2872 4.16404C10.4606 4.66744 7.44052 7.76876 7.06104 11.6096C6.5384 16.8996 6 22.382 6 28C6 33.618 6.5384 39.1004 7.06108 44.3904Z" stroke="white" stroke-width="3"/>
<path d="M32.1839 11V19.7369H42.0004C46.3664 19.7369 49.9156 23.2344 49.9988 27.5804C49.984 24.4209 49.8028 21.3049 49.554 18.2425C48.9296 10.5488 42.7812 4.12048 35.0983 3.37721C32.7638 3.15137 30.3958 3 27.9999 3C27.0643 3 26.1329 3.02308 25.2061 3.06467C29.1417 3.5666 32.1839 6.928 32.1839 11Z" stroke="white" stroke-width="3" stroke-linejoin="round"/>
</svg>
