<svg width="51" height="52" viewBox="0 0 51 52" fill="none" xmlns="http://www.w3.org/2000/svg">
<path d="M14.875 17.2806H8.5C6.1625 17.2806 4.25 15.3681 4.25 13.0306V8.78064C4.25 6.44314 6.1625 4.53064 8.5 4.53064H14.875C17.2125 4.53064 19.125 6.44314 19.125 8.78064V13.0306C19.125 15.3681 17.2125 17.2806 14.875 17.2806Z" stroke="#292D32" stroke-width="3" stroke-linecap="round" stroke-linejoin="round"/>
<path d="M44.2 15.1555H36.55C35.1475 15.1555 34 14.008 34 12.6055V9.20557C34 7.80307 35.1475 6.65555 36.55 6.65555H44.2C45.6025 6.65555 46.75 7.80307 46.75 9.20557V12.6055C46.75 14.008 45.6025 15.1555 44.2 15.1555Z" stroke="#292D32" stroke-width="3" stroke-linecap="round" stroke-linejoin="round"/>
<path d="M44.2 31.093H36.55C35.1475 31.093 34 29.9455 34 28.543V25.1431C34 23.7406 35.1475 22.593 36.55 22.593H44.2C45.6025 22.593 46.75 23.7406 46.75 25.1431V28.543C46.75 29.9455 45.6025 31.093 44.2 31.093Z" stroke="#292D32" stroke-width="3" stroke-linecap="round" stroke-linejoin="round"/>
<path d="M19.125 10.9056H34" stroke="#292D32" stroke-width="3" stroke-miterlimit="10" stroke-linecap="round" stroke-linejoin="round"/>
<path d="M26.5625 10.9056V38.5306C26.5625 40.8681 28.475 42.7806 30.8125 42.7806H34" stroke="#292D32" stroke-width="3" stroke-miterlimit="10" stroke-linecap="round" stroke-linejoin="round"/>
<path d="M26.5625 26.8431H34" stroke="#292D32" stroke-width="3" stroke-miterlimit="10" stroke-linecap="round" stroke-linejoin="round"/>
<path d="M44.2 47.0305H36.55C35.1475 47.0305 34 45.883 34 44.4805V41.0806C34 39.6781 35.1475 38.5305 36.55 38.5305H44.2C45.6025 38.5305 46.75 39.6781 46.75 41.0806V44.4805C46.75 45.883 45.6025 47.0305 44.2 47.0305Z" stroke="#292D32" stroke-width="3" stroke-linecap="round" stroke-linejoin="round"/>
</svg>
