<svg width="49" height="48" viewBox="0 0 49 48" fill="none" xmlns="http://www.w3.org/2000/svg">
<path d="M8.01654 12.4614C10.7476 12.4614 12.9616 10.2474 12.9616 7.51635C12.9616 4.78526 10.7476 2.57129 8.01654 2.57129C5.28544 2.57129 3.07147 4.78526 3.07147 7.51635C3.07147 10.2474 5.28544 12.4614 8.01654 12.4614Z" stroke="#058656" stroke-width="3" stroke-linecap="round" stroke-linejoin="round"/>
<path d="M8.01654 28.9453C10.7476 28.9453 12.9616 26.7313 12.9616 24.0002C12.9616 21.2691 10.7476 19.0552 8.01654 19.0552C5.28544 19.0552 3.07147 21.2691 3.07147 24.0002C3.07147 26.7313 5.28544 28.9453 8.01654 28.9453Z" stroke="black" stroke-width="3" stroke-linecap="round" stroke-linejoin="round"/>
<path d="M24.5 12.4614C27.2311 12.4614 29.445 10.2474 29.445 7.51635C29.445 4.78526 27.2311 2.57129 24.5 2.57129C21.7689 2.57129 19.5549 4.78526 19.5549 7.51635C19.5549 10.2474 21.7689 12.4614 24.5 12.4614Z" stroke="#058656" stroke-width="3" stroke-linecap="round" stroke-linejoin="round"/>
<path d="M24.5 28.9453C27.2311 28.9453 29.445 26.7313 29.445 24.0002C29.445 21.2691 27.2311 19.0552 24.5 19.0552C21.7689 19.0552 19.5549 21.2691 19.5549 24.0002C19.5549 26.7313 21.7689 28.9453 24.5 28.9453Z" stroke="#058656" stroke-width="3" stroke-linecap="round" stroke-linejoin="round"/>
<path d="M24.5 45.4286C27.2311 45.4286 29.445 43.2145 29.445 40.4836C29.445 37.7524 27.2311 35.5386 24.5 35.5386C21.7689 35.5386 19.5549 37.7524 19.5549 40.4836C19.5549 43.2145 21.7689 45.4286 24.5 45.4286Z" stroke="black" stroke-width="3" stroke-linecap="round" stroke-linejoin="round"/>
<path d="M40.9835 12.4614C43.7144 12.4614 45.9286 10.2474 45.9286 7.51635C45.9286 4.78526 43.7144 2.57129 40.9835 2.57129C38.2523 2.57129 36.0385 4.78526 36.0385 7.51635C36.0385 10.2474 38.2523 12.4614 40.9835 12.4614Z" stroke="black" stroke-width="3" stroke-linecap="round" stroke-linejoin="round"/>
<path d="M40.9835 28.9453C43.7144 28.9453 45.9286 26.7313 45.9286 24.0002C45.9286 21.2691 43.7144 19.0552 40.9835 19.0552C38.2523 19.0552 36.0385 21.2691 36.0385 24.0002C36.0385 26.7313 38.2523 28.9453 40.9835 28.9453Z" stroke="black" stroke-width="3" stroke-linecap="round" stroke-linejoin="round"/>
</svg>
