<svg width="28" height="29" viewBox="0 0 28 29" fill="none" xmlns="http://www.w3.org/2000/svg">
<path d="M28 14.3903C28 6.65754 21.7328 0.39032 14 0.39032C6.26722 0.39032 0 6.65754 0 14.3903C0 21.3794 5.11875 27.1708 11.8125 28.2208V18.4372H8.25778V14.3903H11.8125V11.3059C11.8125 7.79772 13.9016 5.85907 17.1008 5.85907C18.632 5.85907 20.2344 6.13251 20.2344 6.13251V9.57782H18.468C16.7289 9.57782 16.1875 10.6579 16.1875 11.7653V14.3903H20.0703L19.4496 18.4372H16.1875V28.2208C22.8812 27.1708 28 21.3794 28 14.3903Z" fill="#1877F2"/>
<path d="M19.4496 18.4372L20.0703 14.3903H16.1875V11.7653C16.1875 10.6579 16.7289 9.57782 18.468 9.57782H20.2344V6.13251C20.2344 6.13251 18.632 5.85907 17.1008 5.85907C13.9016 5.85907 11.8125 7.79772 11.8125 11.3059V14.3903H8.25781V18.4372H11.8125V28.2208C12.5262 28.3329 13.2563 28.3903 14 28.3903C14.7438 28.3903 15.4739 28.3329 16.1875 28.2208V18.4372H19.4496Z" fill="white"/>
</svg>
