<svg width="49" height="48" viewBox="0 0 49 48" fill="none" xmlns="http://www.w3.org/2000/svg">
<path d="M42.9243 38.0012C43.2078 33.4819 43.357 28.7986 43.357 23.9996C43.357 22.0561 43.3326 20.1314 43.2846 18.229C43.251 16.8925 42.8173 15.5936 42.0264 14.5159C39.0109 10.408 36.6089 7.85423 32.6499 4.79886C31.562 3.95921 30.227 3.50365 28.8531 3.47362C27.4754 3.44351 26.0367 3.42822 24.4998 3.42822C19.8474 3.42822 16.0945 3.56835 12.2108 3.83537C8.90691 4.06254 6.28292 6.6927 6.07545 9.99791C5.79181 14.5174 5.6427 19.2007 5.6427 23.9996C5.6427 28.7986 5.79181 33.4819 6.07545 38.0012C6.28292 41.3067 8.90691 43.9368 12.2108 44.1638C16.0945 44.4308 19.8474 44.5711 24.4998 44.5711C29.1522 44.5711 32.9052 44.4308 36.7889 44.1638C40.0926 43.9368 42.7169 41.3067 42.9243 38.0012Z" stroke="black" stroke-width="3"/>
<path d="M14.2146 3.70861V23.2896C14.2146 24.8168 16.0611 25.5817 17.1411 24.5018L21.0717 20.5711L25.0024 24.5018C26.0824 25.5817 27.9289 24.8168 27.9289 23.2896V3.45579C26.8338 3.43748 25.6968 3.42822 24.5003 3.42822C20.6504 3.42822 17.4164 3.52419 14.2146 3.70861Z" stroke="#058656" stroke-width="3" stroke-linejoin="round"/>
</svg>
