<svg width="49" height="48" viewBox="0 0 49 48" fill="none" xmlns="http://www.w3.org/2000/svg">
<path d="M6.33809 38.0498C6.66332 41.3419 9.252 44 12.5319 44.4317C16.3338 44.9319 20.2638 45.4294 24.2857 45.4294C28.3077 45.4294 32.2377 44.9319 36.0396 44.4317C39.3193 44 41.9083 41.3419 42.2333 38.0498C42.6814 33.5154 43.1429 28.8162 43.1429 24.0008C43.1429 21.1695 42.9835 18.3784 42.7609 15.6372C42.2254 9.04267 36.9557 3.53268 30.37 2.89559C28.3691 2.70201 26.3394 2.57227 24.2857 2.57227C20.2638 2.57227 16.3338 3.06989 12.5319 3.57001C9.252 4.0015 6.66332 6.65977 6.33805 9.95189C5.89007 14.4862 5.42859 19.1854 5.42859 24.0008C5.42859 28.8162 5.89007 33.5154 6.33809 38.0498Z" stroke="black" stroke-width="3"/>
<path d="M27.8719 9.42941V16.9182H36.286C40.0283 16.9182 43.0705 19.916 43.1418 23.6411C43.1291 20.9331 42.9738 18.2622 42.7606 15.6372C42.2254 9.04267 36.9553 3.53268 30.3699 2.89559C28.369 2.70201 26.3392 2.57227 24.2856 2.57227C23.4836 2.57227 22.6853 2.59205 21.8909 2.6277C25.2642 3.05792 27.8719 5.93912 27.8719 9.42941Z" stroke="#058656" stroke-width="3" stroke-linejoin="round"/>
</svg>
