<svg width="49" height="48" viewBox="0 0 49 48" fill="none" xmlns="http://www.w3.org/2000/svg">
<path d="M45.9286 2.57129V45.4284" stroke="black" stroke-width="3" stroke-linecap="round"/>
<path d="M26.4592 6C23.3127 6 20.0918 6.21285 17.9787 6.48802C16.464 6.6853 15.3277 7.74219 15.0343 9.24117C14.8445 10.2108 14.7041 11.4156 14.7041 12.8571C14.7041 14.2987 14.8445 15.5034 15.0343 16.4729C15.3277 17.9719 16.464 19.0288 17.9787 19.226C20.0918 19.5011 23.3127 19.7139 26.4592 19.7141C29.6058 19.7142 32.8267 19.5014 34.9397 19.2262C36.4545 19.0289 37.5907 17.972 37.8842 16.473C38.0741 15.5034 38.2144 14.2986 38.2144 12.857C38.2144 11.4155 38.0741 10.2107 37.8842 9.24106C37.5907 7.74206 36.4545 6.6852 34.9397 6.48795C32.8267 6.21278 29.6058 6 26.4592 6Z" stroke="#058656" stroke-width="3"/>
<path d="M21.3164 28.2856C15.5508 28.2856 10.5206 28.5329 7.70653 28.8391C6.18802 29.0042 5.04202 30.0278 4.7486 31.5268C4.5588 32.4964 4.4184 33.7012 4.4184 35.1428C4.4184 36.5842 4.55876 37.789 4.74857 38.7586C5.04202 40.2575 6.18802 41.2813 7.70653 41.4462C10.5206 41.7524 15.5508 41.9996 21.3164 41.9996C27.082 41.9996 32.1121 41.7524 34.9264 41.4466C36.4449 41.2813 37.5907 40.2575 37.8842 38.7586C38.0741 37.789 38.2144 36.5842 38.2144 35.1428C38.2144 33.7011 38.0741 32.4963 37.8842 31.5267C37.5907 30.0277 36.4449 29.0041 34.9264 28.8389C32.1121 28.5329 27.082 28.2856 21.3164 28.2856Z" stroke="black" stroke-width="3"/>
</svg>
