<svg width="49" height="48" viewBox="0 0 49 48" fill="none" xmlns="http://www.w3.org/2000/svg">
<path d="M9.34756 8.84766L10.6102 10.1103" stroke="black" stroke-width="3" stroke-linecap="round" stroke-linejoin="round"/>
<path d="M24.4999 2.57129V4.35699" stroke="black" stroke-width="3" stroke-linecap="round" stroke-linejoin="round"/>
<path d="M45.9286 24H44.143" stroke="black" stroke-width="3" stroke-linecap="round" stroke-linejoin="round"/>
<path d="M4.85705 24H3.07132" stroke="black" stroke-width="3" stroke-linecap="round" stroke-linejoin="round"/>
<path d="M39.6523 8.84766L38.3896 10.1103" stroke="black" stroke-width="3" stroke-linecap="round" stroke-linejoin="round"/>
<path d="M34.4282 18.9519C35.4556 20.7241 35.9901 22.7391 35.976 24.7876C35.9671 26.9127 35.3658 28.9932 34.2394 30.7953C33.8634 31.397 33.511 31.9246 33.1869 32.4098C32.0193 34.1579 31.2184 35.3569 30.9946 37.4998H18.0081C17.7884 35.287 16.9761 34.0847 15.71 32.2109C15.4538 31.8318 15.1791 31.4253 14.887 30.9773C13.768 29.2614 13.1286 27.2772 13.0354 25.2307C12.9421 23.1843 13.3984 21.1502 14.3567 19.3396C15.315 17.5291 16.7405 16.008 18.4851 14.9344C20.2298 13.8607 22.23 13.2736 24.2782 13.2341C26.3264 13.1945 28.3478 13.7039 30.1327 14.7094C31.9175 15.7148 33.4007 17.1797 34.4282 18.9519Z" stroke="#058656" stroke-width="3" stroke-linecap="round" stroke-linejoin="round"/>
<path d="M28.4641 45.4287H20.5356" stroke="black" stroke-width="3" stroke-linecap="round" stroke-linejoin="round"/>
</svg>
