<svg width="49" height="48" viewBox="0 0 49 48" fill="none" xmlns="http://www.w3.org/2000/svg">
<path d="M24.5 16.2856C28.8886 16.2856 31.3572 13.817 31.3572 9.42843C31.3572 5.03986 28.8886 2.57129 24.5 2.57129C20.1115 2.57129 17.6429 5.03986 17.6429 9.42843C17.6429 13.817 20.1115 16.2856 24.5 16.2856Z" stroke="#058656" stroke-width="3" stroke-linecap="round" stroke-linejoin="round"/>
<path d="M8.21433 45.4288C11.5058 45.4288 13.3572 43.5774 13.3572 40.2859C13.3572 36.9945 11.5058 35.1431 8.21433 35.1431C4.9229 35.1431 3.07147 36.9945 3.07147 40.2859C3.07147 43.5774 4.9229 45.4288 8.21433 45.4288Z" stroke="black" stroke-width="3" stroke-linecap="round" stroke-linejoin="round"/>
<path d="M24.5 45.4288C27.7915 45.4288 29.6429 43.5774 29.6429 40.2859C29.6429 36.9945 27.7915 35.1431 24.5 35.1431C21.2086 35.1431 19.3572 36.9945 19.3572 40.2859C19.3572 43.5774 21.2086 45.4288 24.5 45.4288Z" stroke="black" stroke-width="3" stroke-linecap="round" stroke-linejoin="round"/>
<path d="M40.7857 45.4288C44.0772 45.4288 45.9286 43.5774 45.9286 40.2859C45.9286 36.9945 44.0772 35.1431 40.7857 35.1431C37.4943 35.1431 35.6429 36.9945 35.6429 40.2859C35.6429 43.5774 37.4943 45.4288 40.7857 45.4288Z" stroke="black" stroke-width="3" stroke-linecap="round" stroke-linejoin="round"/>
<path d="M7.35718 35.1426V31.7141C7.35718 27.927 10.4272 24.8569 14.2143 24.8569H34.7857C38.5729 24.8569 41.6429 27.927 41.6429 31.7141V35.1426" stroke="black" stroke-width="3"/>
<path d="M24.5 16.2856V35.1428" stroke="#058656" stroke-width="3"/>
</svg>
