<svg width="24" height="25" viewBox="0 0 24 25" fill="none" xmlns="http://www.w3.org/2000/svg">
<path d="M12.0186 3.69061C8.70862 3.69061 6.01862 6.38061 6.01862 9.69061V12.5806C6.01862 13.1906 5.75862 14.1206 5.44862 14.6406L4.29862 16.5506C3.58862 17.7306 4.07862 19.0406 5.37862 19.4806C9.68862 20.9206 14.3386 20.9206 18.6486 19.4806C19.8586 19.0806 20.3886 17.6506 19.7286 16.5506L18.5786 14.6406C18.2786 14.1206 18.0186 13.1906 18.0186 12.5806V9.69061C18.0186 6.39061 15.3186 3.69061 12.0186 3.69061Z" stroke="#048454" stroke-width="2" stroke-miterlimit="10" stroke-linecap="round"/>
<path d="M13.8719 3.98064C13.5619 3.89064 13.2419 3.82064 12.9119 3.78064C11.9519 3.66064 11.0319 3.73064 10.1719 3.98064C10.4619 3.24064 11.1819 2.72064 12.0219 2.72064C12.8619 2.72064 13.5819 3.24064 13.8719 3.98064Z" stroke="#048454" stroke-width="2" stroke-miterlimit="10" stroke-linecap="round" stroke-linejoin="round"/>
<path d="M15.0195 19.8406C15.0195 21.4906 13.6695 22.8406 12.0195 22.8406C11.1995 22.8406 10.4395 22.5006 9.89953 21.9606C9.35953 21.4206 9.01953 20.6606 9.01953 19.8406" stroke="#048454" stroke-width="2" stroke-miterlimit="10"/>
</svg>
