<svg width="52" height="52" viewBox="0 0 52 52" fill="none" xmlns="http://www.w3.org/2000/svg">
<path d="M38.7519 15.4956C38.6244 15.4743 38.4756 15.4743 38.3481 15.4956C35.4156 15.3893 33.0781 12.9881 33.0781 10.0131C33.0781 6.9743 35.5219 4.53055 38.5606 4.53055C41.5994 4.53055 44.0431 6.99555 44.0431 10.0131C44.0219 12.9881 41.6844 15.3893 38.7519 15.4956Z" stroke="#292D32" stroke-width="3" stroke-linecap="round" stroke-linejoin="round"/>
<path d="M36.5638 30.9658C39.475 31.4546 42.6838 30.9445 44.9363 29.4358C47.9325 27.4383 47.9325 24.1658 44.9363 22.1683C42.6625 20.6596 39.4112 20.1495 36.5 20.6595" stroke="#292D32" stroke-width="3" stroke-linecap="round" stroke-linejoin="round"/>
<path d="M13.1858 15.4955C13.3133 15.4742 13.462 15.4742 13.5895 15.4955C16.522 15.3892 18.8595 12.988 18.8595 10.013C18.8595 6.97421 16.4158 4.53046 13.377 4.53046C10.3383 4.53046 7.89453 6.99546 7.89453 10.013C7.91578 12.988 10.2533 15.3892 13.1858 15.4955Z" stroke="#292D32" stroke-width="3" stroke-linecap="round" stroke-linejoin="round"/>
<path d="M15.3736 30.9658C12.4623 31.4546 9.25359 30.9445 7.00109 29.4358C4.00484 27.4383 4.00484 24.1658 7.00109 22.1683C9.27484 20.6596 12.5261 20.1495 15.4373 20.6595" stroke="#292D32" stroke-width="3" stroke-linecap="round" stroke-linejoin="round"/>
<path d="M26.0019 31.3701C25.8744 31.3489 25.7256 31.3489 25.5981 31.3701C22.6656 31.2639 20.3281 28.8626 20.3281 25.8876C20.3281 22.8489 22.7719 20.4051 25.8106 20.4051C28.8494 20.4051 31.2931 22.8701 31.2931 25.8876C31.2719 28.8626 28.9344 31.2851 26.0019 31.3701Z" stroke="#292D32" stroke-width="3" stroke-linecap="round" stroke-linejoin="round"/>
<path d="M19.8175 38.064C16.8213 40.0615 16.8213 43.334 19.8175 45.3315C23.2175 47.6052 28.785 47.6052 32.185 45.3315C35.1812 43.334 35.1812 40.0615 32.185 38.064C28.8062 35.8115 23.2175 35.8115 19.8175 38.064Z" stroke="#292D32" stroke-width="3" stroke-linecap="round" stroke-linejoin="round"/>
</svg>
