<svg width="28" height="29" viewBox="0 0 28 29" fill="none" xmlns="http://www.w3.org/2000/svg">
<circle cx="14" cy="14.3903" r="14" fill="currentColor"/>
<rect width="17.5" height="17.5" transform="translate(5.25 5.64032)" fill="currentColor"/>
<path fill-rule="evenodd" clip-rule="evenodd" d="M7.21875 7.60907H12.5869L14.2291 11.9403L12.4589 13.0191C13.064 14.1584 14.1595 15.3363 15.3246 15.9453L16.3997 14.1533L20.7812 15.8024V21.1716H20.1979C16.3815 21.1716 13.1282 19.8635 10.8275 17.5628C8.52685 15.2621 7.21875 12.0088 7.21875 8.1924V7.60907ZM8.39649 8.77574C8.52205 12.0595 9.70918 14.7946 11.6525 16.7379C13.5958 18.6811 16.3308 19.8683 19.6146 19.9938V16.6098L16.8995 15.588L15.8046 17.4128L15.3464 17.2352C13.5206 16.5276 11.8575 14.6667 11.1686 13.0194L10.9752 12.5571L12.7948 11.4482L11.7815 8.77574H8.39649Z" fill="white"/>
</svg>
