<svg width="49" height="48" viewBox="0 0 49 48" fill="none" xmlns="http://www.w3.org/2000/svg">
<path d="M24.4999 30.8878C23.1377 30.8878 21.806 30.4839 20.6733 29.727C19.5406 28.9702 18.6578 27.8945 18.1365 26.6359C17.6152 25.3773 17.4788 23.9924 17.7445 22.6563C18.0103 21.3202 18.6663 20.093 19.6296 19.1297C20.5928 18.1664 21.8201 17.5104 23.1562 17.2446C24.4923 16.9789 25.8772 17.1153 27.1358 17.6366C28.3944 18.1579 29.4701 19.0407 30.2269 20.1734C30.9837 21.3061 31.3877 22.6378 31.3877 24.0001C31.3877 25.8268 30.662 27.5787 29.3703 28.8705C28.0786 30.1621 26.3267 30.8878 24.4999 30.8878Z" stroke="#058656" stroke-width="3"/>
<path d="M40.9846 26.4917C40.9843 26.665 41.0426 26.8334 41.1499 26.9692L43.4367 29.8499C43.8506 30.3676 44.0985 30.9981 44.1478 31.6589C44.1976 32.3197 44.047 32.9802 43.7155 33.554L42.3746 35.8744C42.0437 36.4487 41.5476 36.9098 40.9507 37.1975C40.3538 37.4855 39.6838 37.5866 39.0286 37.4875L35.3858 36.9335C35.2137 36.9095 35.0381 36.9427 34.8869 37.0284L30.5705 39.5203C30.4205 39.6084 30.3042 39.7442 30.2398 39.906L28.896 43.3346C28.6553 43.9507 28.2345 44.4804 27.6884 44.8538C27.1423 45.2272 26.4964 45.4277 25.8347 45.4284H23.1531C22.4915 45.4277 21.8455 45.2272 21.2994 44.8538C20.7533 44.4804 20.3325 43.9507 20.0919 43.3346L18.748 39.906C18.6837 39.7442 18.5674 39.6084 18.4174 39.5203L14.1011 37.0284C13.9498 36.9424 13.7743 36.9091 13.6021 36.9335L9.95922 37.4875C9.30395 37.5866 8.63408 37.4855 8.03716 37.1975C7.44025 36.9098 6.944 36.4487 6.61331 35.8744L5.2725 33.554C4.94092 32.9802 4.79013 32.3197 4.83985 31.6589C4.88953 30.9981 5.13741 30.3676 5.55107 29.8499L7.85003 26.9692C7.95762 26.8334 8.01591 26.665 8.01536 26.4917V21.508C8.01591 21.3347 7.95762 21.1664 7.85003 21.0305L5.55107 18.1499C5.13741 17.6321 4.88953 17.0017 4.83985 16.3408C4.79013 15.68 4.94092 15.0196 5.2725 14.4458L6.61331 12.1254C6.944 11.5511 7.44025 11.0899 8.03716 10.8021C8.63408 10.5143 9.30395 10.4132 9.95922 10.5121L13.5929 11.0662C13.7651 11.0906 13.9406 11.0572 14.0919 10.9713L18.4174 8.4672C18.5674 8.37891 18.6837 8.24321 18.748 8.08148L20.098 4.66515C20.3386 4.04887 20.7595 3.51943 21.3055 3.1459C21.8516 2.77238 22.4976 2.57213 23.1592 2.57129H25.847C26.5086 2.57213 27.1546 2.77238 27.7007 3.1459C28.2467 3.51943 28.6676 4.04887 28.9082 4.66515L30.2521 8.08148C30.3141 8.24774 30.4306 8.38807 30.5827 8.47944L34.8989 10.9713C35.0505 11.057 35.2257 11.0904 35.3981 11.0662L39.041 10.5121C39.6962 10.4132 40.3661 10.5143 40.963 10.8021C41.5599 11.0899 42.0561 11.5511 42.3869 12.1254L43.7275 14.4458C44.059 15.0196 44.2099 15.68 44.1602 16.3408C44.1105 17.0017 43.8626 17.6321 43.4491 18.1499L41.1499 21.0305C41.0426 21.1664 40.9843 21.3347 40.9846 21.508V26.4917Z" stroke="black" stroke-width="3"/>
</svg>
